<svg xmlns="http://www.w3.org/2000/svg" fill="none" viewBox="0 0 48 48" class="base-avatar__avatar">
    <circle cx="24" cy="24" r="24" fill="#fff" />
    <path fill="#E99457" d="M1.546 32.494 2.53 32c1.753-.908 4.844-2.483 7.211-3.41.64-.25 1.164-.455 1.48-.59.644-.28.999-.672 1.322-1.029.431-.476.805-.888 1.733-.888l-.02.02q.135 0 .271-.004c.037-.87-.008-1.884-.153-3.07-.712-5.9 1.227-13.442 12.723-13.011 5.283.184 9.003 4.016 8.805 9.733-.114 3.01-2.041 4.277-3.928 5.518-1.71 1.124-3.387 2.227-3.65 4.584C27.631 35.94 25.887 43.271 24.74 47c-.027.089-.174.471-.382.997Q24.18 48 24 48C13.736 48 4.976 41.556 1.546 32.494"/>
    <path fill="#E99457" d="M36.436 28.05c5.739-1.804 7.717-11.394 2.672-11.578l-11.912-.636c-4.294.082-10.566 8.627-5.362 12.787 1.523 1.188 5.263 2.357 14.583-.574z"/>
    <path fill="#131313" d="m39.206 16.76-1.306-.042c-1.286-.04-2.374 1.005-2.433 2.337-.04 1.352.97 2.479 2.255 2.52l1.306.04c1.287.042 2.375-1.003 2.434-2.335.04-1.353-.97-2.48-2.256-2.52"/>
    <path fill="#fff" d="M34.002 14.895s-1.8 2.07-3.957 1.988c-2.137-.082-3.799-2.275-3.799-2.275s1.8-2.049 3.938-1.988c2.137.083 3.799 2.275 3.799 2.275z"/>
    <path fill="#131313" d="M29.275 16.943c1.167 0 2.117-.983 2.117-2.192s-.95-2.193-2.117-2.193-2.117.984-2.117 2.193.95 2.192 2.117 2.192"/>
    <path fill="#E15D59" d="M20.153 25.836c2.79 0 5.066-2.356 5.066-5.245s-2.276-5.246-5.066-5.246-5.065 2.356-5.065 5.245 2.275 5.246 5.065 5.246"/>
    <path fill="#131313" d="M16.769 13.378C4.066 18.132 3.452 23.235 5.509 27.046c2.059 3.812 8.39 2.971 10.824-.39 3.404-4.692.416-13.257.416-13.257z"/>
    <path fill="#fff" d="M26.108 16.576s-1.8 2.049-3.957 1.987c-2.137-.082-3.8-2.274-3.8-2.274s1.801-2.05 3.938-1.988c2.137.082 3.8 2.275 3.8 2.275z"/>
    <path fill="#131313" d="M21.4 18.644c1.168 0 2.117-.983 2.117-2.192s-.95-2.193-2.117-2.193-2.117.984-2.117 2.193.95 2.192 2.117 2.192"/>
    <path fill="#131313" fill-rule="evenodd" d="M31.87 21.183a.67.67 0 0 1 .771.56q.067.394.272.748c.131.227.306.422.508.572.201.149.437.257.695.32l.01.002c.233.06.494.074.731.031a.67.67 0 0 1 .772.56.69.69 0 0 1-.54.799c-.434.08-.883.053-1.282-.05a3.2 3.2 0 0 1-1.16-.54 3.3 3.3 0 0 1-.877-.984 3.6 3.6 0 0 1-.441-1.22.69.69 0 0 1 .54-.799" clip-rule="evenodd"/>
</svg>
