<svg width="371" height="316" viewBox="0 0 371 316" fill="none" xmlns="http://www.w3.org/2000/svg">
<g clip-path="url(#clip0_9120_67576)">
<path opacity="0.08" d="M269.947 315.785C215.7 315.785 171.725 312.08 171.725 307.51C171.725 302.94 215.7 299.236 269.947 299.236C324.193 299.236 368.169 302.94 368.169 307.51C368.169 312.08 324.193 315.785 269.947 315.785Z" fill="#1A1A1A"/>
<path opacity="0.08" d="M134.014 294.762C79.7675 294.762 35.792 290.622 35.792 285.516C35.792 280.41 79.7675 276.271 134.014 276.271C188.261 276.271 232.236 280.41 232.236 285.516C232.236 290.622 188.261 294.762 134.014 294.762Z" fill="#1A1A1A"/>
<path opacity="0.08" d="M213.816 266.797C141.602 266.797 83.0616 261.262 83.0616 254.435C83.0616 247.609 141.602 242.074 213.816 242.074C286.029 242.074 344.569 247.609 344.569 254.435C344.569 261.262 286.029 266.797 213.816 266.797Z" fill="#1A1A1A"/>
<path d="M289.083 77.4131H344.011V84.8986H289.083V77.4131Z" fill="#E15D59"/>
<path d="M183.315 211.667C183.315 211.667 176.8 220.913 203.141 235.864C229.482 250.815 164.277 245.817 162.032 239.465C160.939 236.39 162.962 210.109 165.329 183.91" fill="#1A1A1A"/>
<path d="M336.04 90.5635C337.861 103.633 341.259 144.581 328.797 221.944C328.797 221.944 323.072 230.28 350.525 241.184C377.999 252.089 312.612 252.372 309.84 247.132C307.069 241.892 309.476 151.904 309.476 151.904" fill="#1A1A1A"/>
<path d="M313.542 181.24C312.248 194.875 310.568 209.786 308.404 225.991C308.404 225.991 302.678 236.106 330.132 249.317C357.586 262.528 292.219 262.892 289.447 256.54C286.676 250.187 289.083 141.061 289.083 141.061" fill="#8FC6CE"/>
<path d="M175.222 157.488C172.511 176.465 168.142 199.933 161.182 228.216C161.182 228.216 154.789 236.066 181.272 249.176C207.754 262.286 142.569 257.228 140.243 251.786C139.798 250.754 139.798 246.647 140.081 240.719" fill="#8FC6CE"/>
<path d="M140.425 103.046C142.408 103.046 144.107 101.569 144.35 99.5464C144.613 97.3816 143.055 95.4192 140.89 95.136C140.729 95.136 125.272 93.0724 118.737 81.7632C114.286 74.0551 114.833 63.5349 120.336 50.5263C121.185 48.5032 120.255 46.1969 118.232 45.3269C116.229 44.4772 113.902 45.4078 113.032 47.431C106.477 62.8875 106.093 75.795 111.899 85.7892C120.457 100.517 139.13 102.905 139.919 103.006C140.081 103.006 140.243 103.026 140.385 103.026L140.425 103.046Z" fill="#8FC6CE"/>
<path d="M291.733 210.899C291.733 210.899 287.444 243.005 280.707 242.56C273.97 242.115 270.632 219.477 268.852 211.263C267.072 203.049 271.158 251.361 258.757 244.078C246.335 236.794 243.442 220.367 241.661 213.933C239.881 207.5 238.708 245.17 229.401 239.02C220.095 232.87 221.37 225.425 216.919 218.141C216.413 217.312 215.927 216.927 215.482 216.887C215.482 216.887 215.806 244.138 205.771 237.26C195.737 230.381 196.566 216.583 194.24 214.803C191.913 213.023 186.693 238.818 181.352 235.601C176.011 232.384 174.575 209.422 174.008 205.659C173.442 201.896 167.717 226.112 161.85 229.815C155.982 233.517 152.665 205.355 152.665 205.355C153.555 214.823 142.246 243.046 135.428 247.497C128.61 251.927 130.208 229.592 129.156 225.89C128.104 222.188 118.312 240.234 111.757 244.118C105.223 248.002 108.46 224.089 108.338 221.601C108.217 219.112 90.4943 235.945 86.9336 231.069C83.373 226.193 115.46 196.008 113.214 148.081C110.948 100.153 137.329 94.347 137.329 94.347C255.034 110.33 289.65 80.2661 289.65 80.2661" fill="#B0DDE4"/>
<path d="M347.47 89.9566C347.673 93.0925 347.814 96.2283 347.956 99.3844C348.32 107.335 348.563 115.286 348.725 123.237C348.927 133.798 348.968 144.358 348.745 154.919C348.522 165.904 348.037 176.91 347.005 187.855C346.135 197.121 344.962 206.468 342.494 215.45C341.158 220.286 339.459 229.208 336.283 229.167C333.612 229.127 333.551 219.497 332.459 214.601C329.586 201.855 327.624 188.907 326.43 175.899C325.884 170.011 325.52 164.124 325.297 158.216C323.76 115.974 334.158 230.624 319.349 230.34C304.54 230.037 307.453 168.939 307.453 168.939C307.453 168.939 305.41 239.95 297.257 235.156C289.104 230.361 284.147 168.899 284.147 162.688C284.147 156.477 273.566 88.7832 273.566 88.7832C273.566 88.7832 289.791 86.8006 290.945 74.2168C292.098 61.633 303.083 19.0667 308.04 17.0032C312.997 14.9396 351.517 44.295 351.962 48.503C352.407 52.7111 354.288 77.8787 347.491 89.9971L347.47 89.9566Z" fill="#B0DDE4"/>
<path d="M302.577 81.5L288.274 81.1763C288.658 79.4769 289.002 77.8584 289.306 76.341C294.465 50.162 286.453 50.425 286.453 50.425C284.956 50.607 283.398 50.607 281.881 50.6677C277.309 50.87 272.736 50.9914 268.144 51.0117C262.641 51.0117 257.118 50.9307 251.635 50.4452C249.208 50.2429 246.8 49.9596 244.413 49.5146C242.288 49.1099 239.901 48.8469 238.02 47.6938C237.008 47.0666 236.138 46.0753 235.997 44.8816C235.835 43.5868 236.543 42.3123 237.453 41.3614C238.606 40.188 240.083 39.3788 241.641 38.8325C243.603 38.1244 245.687 37.8614 247.67 37.2545C251.817 36.0002 255.884 34.4221 259.849 32.6418C263.187 31.1447 266.465 29.506 269.722 27.8066C271.502 26.8759 273.283 26.006 275.043 25.0147C276.985 23.9222 278.887 22.7488 280.465 21.1505C282.933 18.6418 285.199 16.0118 287.91 13.7459C291.046 11.1361 294.444 8.80952 298.045 6.90779C298.045 6.90779 332.863 -2.94477 336.849 20.3413C340.834 43.6071 327.765 77.5751 325.884 77.0087C324.002 76.4422 302.577 81.4798 302.577 81.4798V81.5Z" fill="#B0DDE4"/>
<path d="M315.91 69.7861C301.094 69.7861 289.083 55.1668 289.083 37.133C289.083 19.0993 301.094 4.47998 315.91 4.47998C330.726 4.47998 342.736 19.0993 342.736 37.133C342.736 55.1668 330.726 69.7861 315.91 69.7861Z" fill="#B0DDE4"/>
<path d="M294.06 36.1216H330.861V81.1359H294.06V36.1216Z" fill="#B0DDE4"/>
<path d="M290.297 70.5957L288.274 81.1968L326.187 81.5003L317.832 71.2633L290.297 70.5957Z" fill="#E15D59"/>
<path d="M304.702 22.1622C303.488 21.5148 302.213 20.9281 301.04 20.1594C298.167 18.2779 296.083 15.1623 295.719 11.7634C295.314 7.87906 297.216 3.59006 300.999 2.19411C303.71 1.20279 306.745 1.04094 309.618 1.00048C312.814 0.960014 315.99 1.42533 319.025 2.37619C322.464 3.44844 325.681 5.12763 328.615 7.17097C332.196 9.69986 335.352 12.7952 338.144 16.1131C364.626 47.7951 350.181 106.769 338.144 118.341C326.106 129.913 331.548 85.162 330.112 85.2429C328.655 85.3238 321.918 131.147 314.412 120.243C307.028 109.52 313.077 84.2516 313.28 83.4221C312.895 84.9799 300.959 133.777 294.1 121.922C292.502 119.171 293.129 115.064 293.473 112.09C294.1 106.506 295.334 101.003 296.589 95.5406C298.147 88.8036 299.866 82.1273 301.545 75.4308C303.265 68.6129 304.965 61.795 306.462 54.9164C307.736 49.0494 308.889 43.1217 309.415 37.1333C309.699 33.7951 310.407 30.2547 309.375 26.9773C308.586 24.4686 306.765 23.2345 304.722 22.142L304.702 22.1622Z" fill="#8FC6CE"/>
<path d="M243.603 38.2658C244.837 37.9623 248.176 45.4681 243.603 46.0143C239.031 46.5606 236.3 47.2484 235.956 45.549C235.612 43.8496 234.843 40.3496 243.603 38.2658Z" fill="#1A1A1A"/>
<path d="M149.873 229.39C150.702 229.39 151.491 228.884 151.815 228.075C161.769 202.766 151.066 162.688 150.925 162.323C150.52 161.231 149.347 160.685 148.254 161.089C147.202 161.474 146.636 162.647 147 163.699C147.202 164.448 157.277 202.806 147.931 226.557C147.506 227.63 148.032 228.843 149.104 229.268C149.347 229.369 149.61 229.41 149.873 229.41V229.39Z" fill="#8FC6CE"/>
<path d="M307.028 222.47C308.222 222.47 309.233 221.54 309.294 220.326C310.184 204.363 310.103 184.213 309.901 170.112C309.901 168.858 308.788 167.947 307.595 167.887C306.34 167.887 305.349 168.939 305.369 170.193C305.592 184.213 305.652 204.262 304.783 220.103C304.722 221.358 305.673 222.43 306.927 222.491C306.968 222.491 307.008 222.491 307.048 222.491L307.028 222.47Z" fill="#8FC6CE"/>
<path d="M280.647 28.737C280.647 28.737 285.32 32.4595 289.974 31.5491C294.647 30.6387 297.54 25.3989 297.54 25.3989C297.54 25.3989 292.867 21.6763 288.213 22.5867C283.54 23.4972 280.647 28.737 280.647 28.737Z" fill="white"/>
<path d="M290.155 31.6709C287.563 31.6709 285.462 29.5695 285.462 26.9773C285.462 24.3851 287.563 22.2837 290.155 22.2837C292.748 22.2837 294.849 24.3851 294.849 26.9773C294.849 29.5695 292.748 31.6709 290.155 31.6709Z" fill="#1A1A1A"/>
<path d="M45.9585 136.498C45.9585 136.498 43.9556 145.339 29.1667 146.532" stroke="#1A1A1A" stroke-width="1.96901" stroke-miterlimit="10" stroke-linecap="round"/>
<path d="M127.996 226.101C127.996 226.101 165.848 233.566 174.912 269.092C174.972 269.355 175.053 269.638 175.134 269.962C175.215 270.286 175.316 270.63 175.438 271.014C175.438 273.685 174.831 276.76 176.065 278.601C180.374 282.283 186.504 281.676 190.672 279.107C191.036 278.823 191.359 278.52 191.663 278.196C192.857 276.901 193.524 275.344 193.383 273.826C191.926 256.812 191.198 214.873 167.77 201.48C138.394 184.688 97.224 210.806 127.996 226.121V226.101Z" fill="#1A1A1A"/>
<path d="M58.623 233.183C58.623 233.183 61.6577 251.492 63.5999 267.818C63.6808 268.445 63.7415 269.073 63.8224 269.7C64.834 274.899 57.4496 281.656 64.834 284.731C70.9842 287.179 79.5825 284.731 80.149 277.125C80.2501 276.497 80.331 275.81 80.4322 275.101C82.8195 258.208 86.7039 222.885 80.0478 207.772C42.3572 170.628 58.623 233.162 58.623 233.162V233.183Z" fill="#1A1A1A"/>
<path d="M128.097 205.284C128.097 225.859 111.487 242.549 90.9725 242.549C70.4784 242.549 59.4727 225.07 53.8484 205.284C35.7618 141.616 70.4582 168.018 90.9725 168.018C111.467 168.018 128.097 184.708 128.097 205.284Z" fill="#E99457"/>
<path d="M93.7648 240.971C128.401 245.523 150.048 216.916 177.137 212.769L179.788 174.714C179.788 174.714 129.918 173.54 88.2417 166.176" fill="#E99457"/>
<path d="M78.9556 247.809C78.9556 247.809 76.5076 270.994 75.9006 275.587C75.4151 279.208 71.288 282.344 72.8255 285.318C75.314 290.214 82.6578 289.627 87.574 287.159C93.1578 282.121 106.915 246.393 104.184 235.023C65.1984 182.24 78.9556 247.789 78.9556 247.789V247.809Z" fill="#E99457"/>
<path d="M166.091 218.919C166.091 218.919 191.845 236.277 197.631 275.384C197.753 276.234 197.955 277.448 198.258 278.783C198.36 279.228 198.461 279.693 198.542 280.179C197.55 282.283 196.943 284.124 197.55 285.965C199.998 289.647 205.542 289.647 208.981 288.656C209.426 288.494 209.851 288.312 210.255 288.089C212.663 286.734 214.261 284.266 214.241 281.777C214.12 263.246 214.099 197.656 193.585 181.532C167.871 161.301 139.001 200.226 166.111 218.939L166.091 218.919Z" fill="#E99457"/>
<path d="M20.629 131.177C21.2359 147.888 41.8514 146.188 43.5509 160.653C61.071 310.87 153.001 197.535 119.923 172.408C113.105 167.229 82.3339 167.775 85.7732 140.706C87.9582 123.489 84.4177 98.382 49.6404 99.6565C33.6578 100.243 20.0423 114.466 20.6492 131.197L20.629 131.177Z" fill="#E99457"/>
<path d="M17.129 155.353C-0.229294 150.072 -6.2177 122.052 9.01635 121.506L46.9093 119.625V119.665C59.9179 119.888 78.8947 144.853 63.1144 156.991C58.5017 160.532 45.3312 163.931 17.129 155.353Z" fill="#E99457"/>
<path d="M189.417 193.893C189.417 193.893 222.576 157.943 184.016 143.174C166.9 136.619 168.984 149.607 176.186 150.437C195.285 152.602 198.38 169.11 185.29 176.414" fill="#E99457"/>
<path d="M26.3949 116.934C26.3949 116.934 31.8775 122.942 38.3515 122.72C44.8254 122.477 49.8428 116.084 49.8428 116.084C49.8428 116.084 44.3601 110.075 37.8862 110.298C31.4122 110.541 26.3949 116.934 26.3949 116.934Z" fill="white"/>
<path d="M39.5655 122.963C36.0347 122.963 33.1724 120.101 33.1724 116.57C33.1724 113.039 36.0347 110.177 39.5655 110.177C43.0963 110.177 45.9585 113.039 45.9585 116.57C45.9585 120.101 43.0963 122.963 39.5655 122.963Z" fill="#1A1A1A"/>
<path d="M104.426 241.416C105.114 241.416 105.741 240.951 105.903 240.263C107.785 233.02 108.311 217.645 108.351 216.997C108.371 216.148 107.724 215.439 106.874 215.419C106.065 215.359 105.316 216.046 105.296 216.896C105.296 217.058 104.75 232.575 102.949 239.494C102.747 240.324 103.233 241.153 104.042 241.376C104.163 241.416 104.305 241.416 104.426 241.416Z" fill="#1A1A1A"/>
<path d="M71.0448 144.428C65.2123 144.428 60.4842 139.7 60.4842 133.867C60.4842 128.035 65.2123 123.307 71.0448 123.307C76.8773 123.307 81.6055 128.035 81.6055 133.867C81.6055 139.7 76.8773 144.428 71.0448 144.428Z" fill="#E15D59"/>
<path d="M79.7645 110.5C118.163 124.379 120.045 139.289 113.814 150.396C107.603 161.523 88.4032 159.075 81.0391 149.243C70.7617 135.526 79.7645 110.5 79.7645 110.5Z" fill="#1A1A1A"/>
<path d="M50.2274 121.89C50.2274 121.89 55.71 127.899 62.184 127.676C68.658 127.434 73.6753 121.041 73.6753 121.041C73.6753 121.041 68.1926 115.032 61.7187 115.255C55.2447 115.477 50.2274 121.89 50.2274 121.89Z" fill="white"/>
<path d="M63.418 127.919C59.8872 127.919 57.0249 125.057 57.0249 121.526C57.0249 117.996 59.8872 115.133 63.418 115.133C66.9488 115.133 69.811 117.996 69.811 121.526C69.811 125.057 66.9488 127.919 63.418 127.919Z" fill="#1A1A1A"/>
<path d="M179.14 221.205C166.291 221.205 155.874 210.788 155.874 197.939C155.874 185.09 166.291 174.673 179.14 174.673C191.989 174.673 202.406 185.09 202.406 197.939C202.406 210.788 191.989 221.205 179.14 221.205Z" fill="#E99457"/>
<path d="M166.354 222.662C166.86 222.662 167.366 222.399 167.669 221.933C168.114 221.205 167.892 220.274 167.163 219.809C160.871 215.904 156.704 204.272 156.663 204.15C156.38 203.341 155.51 202.936 154.701 203.22C153.892 203.503 153.487 204.373 153.77 205.182C153.952 205.708 158.342 217.948 165.545 222.419C165.788 222.581 166.071 222.641 166.354 222.641V222.662Z" fill="#1A1A1A"/>
<path d="M114.663 170.061C146.527 173.378 164.25 174.107 164.25 174.107C164.25 174.107 171.999 191.546 155.449 194.419C135.825 197.818 141.186 205.728 121.522 206.841C102.545 207.913 97.8716 176.231 114.663 170.081V170.061Z" fill="#D26F3D"/>
<path d="M44.7444 161.685C44.7444 161.685 47.9813 162.353 53.0796 161.078" stroke="#1A1A1A" stroke-width="1.96901" stroke-miterlimit="10" stroke-linecap="round"/>
<path d="M8.77882 122.492L12.7415 122.347C16.6607 122.204 19.9538 125.266 20.0969 129.185L20.0976 129.205C20.2406 133.124 17.1794 136.417 13.2602 136.56L9.2975 136.705C5.37827 136.848 2.08516 133.787 1.94214 129.868L1.9414 129.847C1.79837 125.928 4.85958 122.635 8.77882 122.492Z" fill="#1A1A1A"/>
<path d="M30.016 147.645C30.016 147.645 30.1172 147.645 30.1576 147.645C48.0622 146.208 50.7125 135.344 50.8136 134.879C51.0159 133.928 50.4292 132.997 49.4986 132.795C48.5679 132.573 47.6373 133.159 47.4148 134.11C47.3136 134.495 45.0477 142.951 29.8744 144.185C28.9033 144.266 28.1952 145.096 28.2761 146.067C28.3571 146.977 29.1056 147.665 30.016 147.665V147.645Z" fill="#1A1A1A"/>
<path d="M187.035 198.335C182.483 210.999 184.384 240.598 190.15 253.606C194.237 262.811 206.902 262.933 211.373 253.485C217.746 240.051 209.613 223.179 200.266 201.289C196.624 192.751 187.055 198.315 187.055 198.315L187.035 198.335Z" fill="#1A1A1A"/>
<path d="M212.688 198.052L215.297 198.78L221.063 202.058L222.5 205.558L220.679 208.612L212.688 206.792V198.052Z" fill="#1A1A1A"/>
<path d="M216.39 253.262C216.39 253.262 198.081 198.355 233.121 245.797C235.569 256.013 227.153 297.932 222.136 302.464C217.725 304.669 211.13 305.216 208.884 300.805C207.509 298.114 210.624 295.161 211.656 292.045C218.211 272.138 216.41 253.242 216.41 253.242L216.39 253.262Z" fill="#1A1A1A"/>
<path d="M305.973 271.673C283.456 259.493 301.32 232.91 322.705 246.019C339.759 256.479 326.043 290.933 326.285 302.768C326.285 304.366 325.011 305.924 323.028 306.774C322.705 306.915 322.361 307.037 321.996 307.138C319.184 307.745 314.612 307.704 312.549 305.337C312.022 304.164 312.508 302.99 313.317 301.655C313.257 301.352 316.332 293.401 316.392 292.855C318.112 278.308 305.994 271.673 305.994 271.673H305.973Z" fill="#1A1A1A"/>
<path d="M312.488 234.103C301.684 234.103 288.878 239.909 288.878 257.915C288.878 281.08 311.193 273.938 318.355 284.155C324.545 292.976 331.303 268.435 331.303 257.632C331.303 246.828 323.291 234.103 312.488 234.103Z" fill="#1A1A1A"/>
<path d="M343.381 251.543C341.783 251.543 340.326 250.491 339.881 248.872C339.335 246.93 340.468 244.927 342.41 244.381C343.138 244.179 360.132 239.181 363.733 219.962C364.098 217.979 365.999 216.684 367.982 217.049C369.965 217.433 371.259 219.335 370.895 221.317C366.444 245.129 345.242 251.199 344.332 251.442C344.008 251.522 343.684 251.563 343.361 251.563H343.381V251.543Z" fill="#FFC940"/>
<path d="M271.56 239.121C285.742 240.456 272.491 261.052 264.075 276.488C249.994 271.43 235.913 275.476 221.832 276.913C215.338 270.034 208.338 260.141 200.974 246.364C195.775 236.633 181.714 243.572 176.636 231.959C174.593 227.306 174.289 222.329 175.341 217.696C176.939 210.737 181.653 204.587 188.309 201.673C212.485 191.113 223.289 207.56 225.191 220.569C227.679 237.624 255.416 237.604 271.54 239.121H271.56Z" fill="#FFC940"/>
<path d="M185.618 212.294C190.089 211.404 194.56 214.985 194.56 214.985C194.56 214.985 191.789 219.982 187.318 220.872C182.847 221.762 178.375 218.181 178.375 218.181C178.375 218.181 181.147 213.184 185.618 212.294Z" fill="white"/>
<path d="M191.991 216.482C191.991 213.994 189.989 211.991 187.5 211.991C185.012 211.991 183.009 213.994 183.009 216.482C183.009 218.97 185.012 220.973 187.5 220.973C189.989 220.973 191.991 218.97 191.991 216.482Z" fill="#1A1A1A"/>
<path d="M175.361 217.312C175.361 217.312 236.459 240.638 203.584 250.713C170.708 260.808 149.02 251.644 146.977 244.704C146.208 242.095 159.156 236.248 166.965 231.878C174.775 227.508 175.361 217.332 175.361 217.332V217.312Z" fill="#FFC940"/>
<path d="M148.029 242.297C144.266 245.878 150.699 249.783 154.645 251.725C157.517 253.141 157.335 239.991 156.708 238.13C156.081 236.269 151.893 238.595 148.029 242.277V242.297Z" fill="#1A1A1A"/>
<path d="M202.957 212.275C207.428 211.384 211.899 214.965 211.899 214.965C211.899 214.965 209.127 219.962 204.656 220.852C200.185 221.743 195.714 218.162 195.714 218.162C195.714 218.162 198.486 213.165 202.957 212.275Z" fill="white"/>
<path d="M209.329 216.462C209.329 213.974 207.326 211.971 204.838 211.971C202.35 211.971 200.347 213.974 200.347 216.462C200.347 218.95 202.35 220.953 204.838 220.953C207.326 220.953 209.329 218.95 209.329 216.462Z" fill="#1A1A1A"/>
<path d="M337.311 260.121C315.158 288.606 247.404 288.687 225.433 279.098C203.462 269.508 237.713 235.621 254.364 237.624C264.439 238.838 295.372 240.8 321.531 235.196C347.69 229.572 337.311 260.1 337.311 260.1V260.121Z" fill="#FFC940"/>
<path d="M282.728 238.756C295.028 238.756 306.418 230.927 321.308 230.927C339.962 230.927 348.277 240.375 348.277 252.048C348.277 263.721 336.199 273.169 321.308 273.169C306.418 273.169 271.054 238.776 282.728 238.776V238.756Z" fill="#FFC940"/>
<path d="M324.627 273.271C301.482 260.06 319.913 230.988 341.884 245.251C359.404 256.62 345.202 294.23 345.424 307.158C345.444 308.877 344.089 310.597 342.066 311.528C341.722 311.669 341.378 311.811 340.994 311.912C338.08 312.58 333.387 312.56 331.283 309.97C330.757 308.675 331.262 307.401 332.092 305.944C332.031 305.6 335.207 296.921 335.268 296.334C337.069 280.473 324.627 273.25 324.627 273.25V273.271Z" fill="#FFC940"/>
<path d="M330.129 232.202C318.355 232.202 304.375 238.514 304.375 258.178C304.375 283.447 328.693 275.658 336.522 286.806C343.3 296.456 350.664 269.649 350.664 257.875C350.664 246.1 341.904 232.202 330.129 232.202Z" fill="#FFC940"/>
<path d="M223.754 278.47C223.754 278.47 215.439 205.982 250.48 253.424C252.928 263.641 244.512 305.56 239.494 310.091C235.084 312.297 228.488 312.843 226.243 308.433C224.867 305.742 227.983 302.788 229.014 299.672C235.569 279.765 223.775 278.45 223.775 278.45L223.754 278.47Z" fill="#FFC940"/>
<path d="M233.566 231.959C222.5 247.861 207.104 257.106 207.104 257.106L204.535 252.797C212.829 250.207 229.54 229.025 229.54 229.025L233.566 231.959Z" fill="#8FC6CE"/>
<path d="M212.688 198.072C225.474 204.708 211.939 240.598 217.705 253.606C221.792 262.811 234.456 262.933 238.927 253.485C245.3 240.051 246.413 216.158 227.82 201.289C222.864 197.323 212.688 198.052 212.688 198.052V198.072Z" fill="#E1B034"/>
<path d="M315.745 278.834C316.21 278.086 315.826 277.216 315.199 276.75C314.288 276.083 313.256 275.435 312.407 274.788C311.618 274.201 310.788 273.372 310.08 272.603C309.332 271.794 308.684 271.045 308.098 270.216C307.45 269.285 306.944 268.233 306.155 267.383C305.569 266.756 304.618 266.817 304.011 267.383C303.404 267.95 303.465 268.941 304.011 269.528C304.618 270.155 305.164 271.308 305.791 272.158C306.479 273.109 307.248 273.979 308.057 274.869C308.866 275.759 309.757 276.568 310.707 277.297C311.658 278.025 312.69 278.672 313.661 279.381C314.349 279.886 315.34 279.461 315.745 278.834Z" fill="#1A1A1A"/>
<path d="M248.537 277.58C247.809 277.337 246.818 277.843 246.676 278.632C246.393 280.129 246.13 281.646 245.847 283.143C245.705 283.851 245.604 284.519 245.402 285.227C245.199 285.935 244.936 286.603 244.714 287.291C244.43 288.1 245.017 288.909 245.766 289.152C246.575 289.415 247.384 288.848 247.627 288.1C247.85 287.412 248.113 286.724 248.315 286.036C248.517 285.349 248.639 284.64 248.76 283.953C249.043 282.455 249.326 280.938 249.589 279.441C249.751 278.612 249.387 277.843 248.537 277.58Z" fill="#1A1A1A"/>
<path d="M207.104 237.361C207.387 236.592 206.8 235.702 206.052 235.5C205.222 235.257 204.454 235.783 204.191 236.552C203.604 238.251 202.714 240.052 201.378 241.326C201.277 241.407 201.196 241.488 201.095 241.569C201.095 241.569 200.731 241.873 200.933 241.711C200.731 241.873 200.529 242.014 200.306 242.136C200.063 242.277 199.821 242.399 199.578 242.52C199.578 242.52 199.335 242.621 199.456 242.56C199.295 242.641 199.133 242.682 198.971 242.742C198.688 242.844 198.425 242.925 198.141 242.985C198.02 243.005 197.919 243.046 197.797 243.066C197.797 243.066 197.352 243.147 197.494 243.127C196.907 243.228 196.3 243.167 195.714 243.167C194.864 243.167 194.237 243.855 194.196 244.685C194.156 245.514 194.925 246.202 195.714 246.202C197.17 246.202 198.546 246.101 199.922 245.615C201.217 245.15 202.35 244.503 203.361 243.572C205.162 241.913 206.274 239.647 207.063 237.361H207.104Z" fill="#1A1A1A"/>
</g>
<defs>
<clipPath id="clip0_9120_67576">
<rect width="371" height="316" fill="white" transform="matrix(-1 0 0 1 371 0)"/>
</clipPath>
</defs>
</svg>
